<svg xmlns="http://www.w3.org/2000/svg">
  <symbol id="xeltica" viewBox="0 0 256 256" fill="currentColor">
    <path d="M232 232h-16v-27.719l-.563-.375-10.875-7.25-33-22-33-22-2.562-1.709V232h-16v-81.052l-35.562 23.708-33 22-10.875 7.25-.563.375V232H24v-36.282l3.563-2.375 4.124-2.75 10.875-7.25 33-22 33-22 10.875-7.25 4.125-2.75 4.438-2.959 4.438 2.959 4.125 2.75 10.875 7.25 33 22 33 22 10.875 7.25 4.125 2.75 3.562 2.375V232z"/>
    <path d="m108.562 99.605-33-22-33-22L40 53.897v17.052H24V24l12.438 8.292 4.125 2.75 10.875 7.25 33 22 30.355 20.237L128 93.334l10.562-7.042 33-22 33-22 10.875-7.25 4.125-2.75L232 24v46.949h-16V53.897l-2.562 1.708-33 22-33 22-5.016 3.344 5.016 3.343 33 22 33 22 2.562 1.709v-17.052h16v46.948l-12.438-8.292-4.125-2.749-10.875-7.25-33-22.001-33-22c-3.52-2.347-7.041-4.695-10.562-7.041l-5.281 3.52c-12.761 8.507-25.52 17.015-38.281 25.521l-33 22.001-10.875 7.25-4.125 2.75L24 181.897v-46.948h16v17.052l2.562-1.709 33-22 33-22 5.016-3.343-5.016-3.344z"/>
  </symbol>
</svg>